<svg width="99" height="57" viewBox="0 0 99 57" fill="none" xmlns="http://www.w3.org/2000/svg">
<path d="M10.0503 44.5893C7.97918 43.8989 10.4619 40.3048 9.55024 39.0893C8.63856 37.8737 7.05028 37.5893 2.55035 42.5893C-1.94961 47.5893 22.5504 58.5893 25.0504 41.5893C27.5504 24.5893 16.5504 9.58927 14.0504 7.08927C11.5504 4.58927 8.25996 8.79859 9.05042 9.58927C9.55029 10.0893 18.0503 21.5893 19.5504 33.5893C20.7577 43.2465 14.5502 46.0893 10.0503 44.5893Z" fill="#fff" stroke="#fff" stroke-width="0"/>
<path d="M41.1126 40.0087C41.1126 40.0087 36.6126 21.6801 33.6126 17.0087C30.6126 12.3373 30.1126 12.0087 26.6126 13.0087C23.8126 13.8087 26.6126 17.0088 28.1126 20.0087C32.1721 28.1274 34.8126 40.0087 35.6126 42.0087C36.6126 44.5087 38.4618 47.9288 41.6126 47.5087C48.1125 46.6421 59.1125 15.5087 60.1126 13.5087C61.1126 11.5088 60.2491 9.83287 58.6126 9.50873C57.1166 9.21242 55.6126 12.0087 55.6126 12.0087L41.1126 40.0087Z" fill="#fff" stroke="#fff" stroke-width="0"/>
<path d="M62.4432 8.51599C58.0432 14.116 62.4433 15.516 63.9432 14.516C65.4431 13.516 84.4431 4.01599 89.4433 11.016C94.4435 18.016 85.4433 25.1827 80.4433 28.516C80.4433 28.516 79.9752 22.6274 78.9433 19.016C76.9431 12.016 71.4435 15.516 71.9433 17.016C72.4431 18.516 74.9433 49.016 74.4433 51.516C74.0433 53.516 77.2766 54.6827 78.9433 55.016C80.9433 55.516 81.2766 43.1827 80.9433 36.016C84.5433 35.616 95.3515 25.5874 96.9433 18.016C98.9378 8.52886 89.11 2.51599 81.4433 2.01599C76.9433 1.84932 66.8432 2.91599 62.4432 8.51599Z" fill="#fff" stroke="#fff" stroke-width="0"/>
<style>
    path {
        fill: #000;
        stroke: #000;
    }
    @media (prefers-color-scheme: dark) {
        path {
            fill: #FFF;
            stroke: #fff:
        }
    }
    </style>
</svg>
